#!OML:ASF H:\MichaelJackson\Top Level 1\Subject 1\Session 1\male.ASF
:FULLY-SPECIFIED
:DEGREES
611
root -9.0378 16.5809 -8.99927 -171.01 0.282273 -174.261
lowerback 6.56159 1.97187 4.09659
upperback 4.33598 3.18461 -0.954318
thorax 1.07706 1.83899 -3.44592
lowerneck -10.3815 -2.27492 1.89437
upperneck 23.3566 -6.26609 5.03173
head 9.17208 -2.75058 0.630443
rclavicle 1.39149e-014 -3.57812e-014
rhumerus -52.9104 64.9978 -83.8703
rradius 100.171
rwrist 5.12587
rhand 33.5318 -23.9165
rfingers 7.12502
rthumb 56.8511 -40.6259
lclavicle 1.39149e-014 -3.57812e-014
lhumerus -20.0103 -26.5928 85.0509
lradius 64.6913
lwrist 3.3723
lhand -31.5651 4.37342
lfingers 7.12502
lthumb -4.82884 34.2984
rfemur -26.1077 -6.67879 32.4379
rtibia 44.2044
rfoot -24.2691 -11.7402
rtoes 15.0945
lfemur -53.2651 10.5357 -16.8282
ltibia 59.0835
lfoot 1.3563 -3.73431
ltoes 7.45811
612
root -9.04626 16.5727 -8.89466 -170.981 0.696617 -174.17
lowerback 6.7876 2.23833 4.45472
upperback 4.48234 3.59106 -0.885931
thorax 1.15946 2.06406 -3.60062
lowerneck -11.1544 -2.48082 1.54365
upperneck 23.3923 -6.44698 5.05507
head 9.34327 -2.81718 0.664825
rclavicle 7.07673e-014 -1.63003e-014
rhumerus -47.9148 64.7001 -78.784
rradius 100.177
rwrist 5.39545
rhand 33.5067 -23.7644
rfingers 7.12502
rthumb 56.829 -40.492
lclavicle 7.07673e-014 -1.63003e-014
lhumerus -21.4088 -26.396 86.1708
lradius 64.8059
lwrist 3.92122
lhand -30.9672 5.00703
lfingers 7.12502
lthumb -4.25147 34.9444
rfemur -26.6497 -6.7955 32.4999
rtibia 44.4602
rfoot -24.1479 -11.0399
rtoes 15.4861
lfemur -53.6806 10.4665 -16.4926
ltibia 60.3163
lfoot 1.86615 -3.81385
ltoes 7.57082
613
root -9.05596 16.5635 -8.78642 -170.819 1.32587 -174.126
lowerback 6.71756 2.37264 4.43
upperback 4.47514 3.76135 -0.826167
thorax 1.20128 2.14675 -3.5287
lowerneck -10.9883 -2.39739 1.69395
upperneck 23.1565 -6.24324 4.80568
head 9.21062 -2.73721 0.584275
rclavicle -3.91606e-014 9.54166e-015
rhumerus -43.2404 64.8825 -74.4453
rradius 100.099
rwrist 5.51629
rhand 32.9632 -23.8254
rfingers 7.12502
rthumb 56.3494 -40.9408
lclavicle -3.91606e-014 9.54166e-015
lhumerus -23.4077 -25.4679 87.1157
lradius 65.1517
lwrist 4.37458
lhand -30.6479 5.48806
lfingers 7.12502
lthumb -3.94316 35.4313
rfemur -27.405 -6.87801 32.5444
rtibia 44.716
rfoot -23.7982 -10.2775
rtoes 15.7008
lfemur -54.207 10.5638 -16.2632
ltibia 61.4905
lfoot 2.40858 -3.85536
ltoes 7.54728
614
root -9.06777 16.5613 -8.68443 -170.952 1.54202 -174.233
lowerback 7.029 2.29013 4.24412
upperback 4.34279 3.64594 -0.57439
thorax 0.850921 2.06636 -3.18253
lowerneck -10.3463 -2.27195 1.14426
upperneck 22.9435 -5.92095 4.7965
head 9.02036 -2.65697 0.722352
rclavicle -4.17448e-015 -1.23246e-014
rhumerus -39.1328 65.1938 -70.3966
rradius 99.9857
rwrist 6.18357
rhand 33.1197 -23.4484
rfingers 7.12502
rthumb 56.4877 -40.4533
lclavicle -4.17448e-015 -1.23246e-014
lhumerus -26.0079 -24.1259 88.5256
lradius 65.5913
lwrist 4.67323
lhand -30.4656 5.64314
lfingers 7.12502
lthumb -3.76705 35.5896
rfemur -27.8363 -7.29798 32.4454
rtibia 44.9344
rfoot -23.5078 -9.63806
rtoes 16.0392
lfemur -54.3302 10.2294 -16.0957
ltibia 62.5733
lfoot 2.84958 -3.81784
ltoes 7.67868
615
root -9.07744 16.5631 -8.58558 -171.163 1.56574 -174.194
lowerback 7.32379 2.35691 4.60492
upperback 4.63912 3.81031 -0.64174
thorax 1.03924 2.18632 -3.46742
lowerneck -11.1015 -2.40686 1.44548
upperneck 22.883 -6.10463 4.72081
head 9.13543 -2.68736 0.615174
rclavicle 1.80894e-014 3.97569e-016
rhumerus -34.1454 64.0219 -65.9802
rradius 99.5939
rwrist 6.60245
rhand 32.5634 -23.3285
rfingers 7.12502
rthumb 55.9956 -40.7216
lclavicle 1.80894e-014 3.97569e-016
lhumerus -27.4302 -24.0139 89.1878
lradius 65.8757
lwrist 4.69882
lhand -30.7756 5.62268
lfingers 7.12502
lthumb -4.06649 35.5636
rfemur -28.0941 -7.74182 32.5304
rtibia 45.0411
rfoot -23.2968 -9.16159
rtoes 16.2961
lfemur -54.4014 9.8659 -15.8028
ltibia 63.624
lfoot 3.41374 -3.81169
ltoes 6.84756
616
root -9.08369 16.5623 -8.48353 -171.19 1.87891 -174.368
lowerback 7.51799 2.45462 4.47487
upperback 4.66914 3.94923 -0.620938
thorax 0.965332 2.25465 -3.39103
lowerneck -11.0984 -2.43534 1.39754
upperneck 22.6882 -6.06746 4.64433
head 9.06416 -2.67641 0.604391
rclavicle 6.79844e-014 -2.34566e-014
rhumerus -29.9053 63.2227 -62.1874
rradius 99.1859
rwrist 7.18206
rhand 31.9549 -23.1561
rfingers 7.12502
rthumb 55.4554 -40.9602
lclavicle 6.79844e-014 -2.34566e-014
lhumerus -29.376 -23.4508 90.1324
lradius 66.2607
lwrist 5.01609
lhand -31.0007 5.87736
lfingers 7.12502
lthumb -4.2838 35.814
rfemur -28.5237 -7.81609 32.366
rtibia 45.0932
rfoot -23.0403 -8.72717
rtoes 17.1571
lfemur -54.5557 9.69316 -15.7619
ltibia 64.6845
lfoot 3.87975 -3.47829
ltoes 6.97925
617
root -9.08755 16.5619 -8.3898 -171.235 2.16165 -174.425
lowerback 7.59326 2.58272 4.48476
upperback 4.76912 4.13731 -0.584248
thorax 1.04279 2.35824 -3.36903
lowerneck -11.283 -2.51386 1.31146
upperneck 22.582 -6.12532 4.64545
head 9.06503 -2.69825 0.611365
rclavicle 3.18055e-015 1.19271e-014
rhumerus -26.0071 61.9986 -58.8372
rradius 98.657
rwrist 8.03088
rhand 31.8654 -22.6853
rfingers 7.12502
rthumb 55.3758 -40.5487
lclavicle 3.18055e-015 1.19271e-014
lhumerus -31.2331 -23.0778 91.034
lradius 66.6838
lwrist 5.21078
lhand -31.6727 5.81731
lfingers 7.12502
lthumb -4.93269 35.7399
rfemur -28.8143 -7.80012 32.3303
rtibia 45.054
rfoot -22.8345 -8.48646
rtoes 17.505
lfemur -54.6444 9.61877 -15.632
ltibia 65.8018
lfoot 4.31145 -3.28358
ltoes 6.7454
618
root -9.0894 16.5595 -8.29181 -171.363 2.33219 -174.452
lowerback 7.61174 2.34805 4.06965
upperback 4.56488 3.77397 -0.293746
thorax 0.73806 2.14061 -2.82801
lowerneck -9.93631 -2.15917 1.13541
upperneck 22.2517 -5.52162 4.41145
head 8.68214 -2.50867 0.652496
rclavicle 9.73051e-014 -1.11319e-014
rhumerus -22.3697 62.0518 -56.0956
rradius 98.0701
rwrist 8.97686
rhand 31.3559 -22.3072
rfingers 7.12502
rthumb 54.9216 -40.5024
lclavicle 9.73051e-014 -1.11319e-014
lhumerus -34.0467 -21.1983 92.0577
lradius 67.2392
lwrist 5.09185
lhand -32.2808 5.67896
lfingers 7.12502
lthumb -5.51989 35.5871
rfemur -29.0198 -7.69393 32.3155
rtibia 45.0146
rfoot -22.6688 -8.37317
rtoes 17.9906
lfemur -54.6466 9.52868 -15.4701
ltibia 67.0013
lfoot 4.86314 -3.14238
ltoes 6.58781
619
root -9.09373 16.5568 -8.19383 -171.422 2.49549 -174.502
lowerback 7.88611 2.66749 4.45207
upperback 4.92931 4.28765 -0.430411
thorax 1.04632 2.44515 -3.21233
lowerneck -11.6348 -2.56163 1.19623
upperneck 22.6435 -6.09816 4.43252
head 9.14598 -2.69648 0.556022
rclavicle -1.0635e-014 4.77083e-015
rhumerus -19.272 59.4505 -53.5571
rradius 97.3903
rwrist 9.99831
rhand 30.8948 -21.9601
rfingers 7.12502
rthumb 54.5096 -40.4476
lclavicle -1.0635e-014 4.77083e-015
lhumerus -34.9099 -21.9016 92.6992
lradius 67.5889
lwrist 5.68849
lhand -32.3043 6.45393
lfingers 7.12502
lthumb -5.54254 36.3614
rfemur -29.2691 -7.51603 32.2708
rtibia 44.962
rfoot -22.535 -8.20055
rtoes 19.0052
lfemur -54.7369 9.46129 -15.3864
ltibia 68.2732
lfoot 5.4322 -2.88143
ltoes 5.87699
620
root -9.09859 16.5554 -8.09853 -171.562 2.62118 -174.468
lowerback 7.9933 2.56318 4.33006
upperback 4.73696 4.12607 -0.19453
thorax 0.745706 2.33798 -2.90748
lowerneck -10.5721 -2.36929 1.01612
upperneck 22.4344 -5.73796 4.2221
head 8.86342 -2.60677 0.575023
rclavicle 1.6201e-014 -7.15625e-015
rhumerus -16.5347 58.9136 -51.6485
rradius 96.6418
rwrist 11.0626
rhand 30.5093 -21.4696
rfingers 7.12502
rthumb 54.1642 -40.1959
lclavicle 1.6201e-014 -7.15625e-015
lhumerus -37.4825 -20.6057 93.6885
lradius 68.1899
lwrist 5.87297
lhand -32.4163 6.88228
lfingers 7.12502
lthumb -5.65068 36.7869
rfemur -29.4621 -7.35105 32.2958
rtibia 44.9449
rfoot -22.3034 -8.06809
rtoes 19.6163
lfemur -54.7319 9.38989 -15.1863
ltibia 69.6196
lfoot 5.90656 -2.7792
ltoes 4.81703
621
root -9.10243 16.5535 -8.00399 -171.627 2.76973 -174.484
lowerback 8.10428 2.74895 4.53109
upperback 4.97851 4.42418 -0.26098
thorax 0.981554 2.51743 -3.10159
lowerneck -11.4726 -2.55072 1.22501
upperneck 22.6697 -6.02614 4.16839
head 9.11215 -2.69189 0.472874
rclavicle 2.76311e-014 4.17448e-015
rhumerus -13.8805 56.7746 -49.9084
rradius 95.7557
rwrist 11.9177
rhand 30.6403 -20.9524
rfingers 7.12502
rthumb 54.2817 -39.5982
lclavicle 2.76311e-014 4.17448e-015
lhumerus -38.6837 -20.6678 94.2576
lradius 68.5243
lwrist 6.29753
lhand -32.4586 7.01927
lfingers 7.12502
lthumb -5.69152 36.9228
rfemur -29.746 -7.15701 32.2543
rtibia 44.9688
rfoot -22.0795 -7.8148
rtoes 20.5652
lfemur -54.761 9.36298 -15.0588
ltibia 71.0024
lfoot 6.51355 -2.68655
ltoes 5.10727
622
root -9.1074 16.546 -7.91259 -171.751 2.93208 -174.417
lowerback 8.11141 2.76102 4.53741
upperback 5.05011 4.45021 -0.113573
thorax 1.04233 2.53527 -2.95193
lowerneck -11.5454 -2.55455 1.22024
upperneck 22.8269 -6.00426 3.97028
head 9.1726 -2.6999 0.40599
rclavicle 4.58199e-014 -1.23246e-014
rhumerus -11.2521 55.5322 -48.3542
rradius 94.7435
rwrist 12.9784
rhand 29.4456 -20.4682
rfingers 7.12502
rthumb 53.2078 -39.8281
lclavicle 4.58199e-014 -1.23246e-014
lhumerus -40.5025 -19.9075 95.0097
lradius 69.1966
lwrist 7.08046
lhand -32.3409 7.53368
lfingers 7.12502
lthumb -5.57784 37.4403
rfemur -29.9659 -7.11256 32.2977
rtibia 45.0304
rfoot -21.8671 -7.51159
rtoes 20.3563
lfemur -54.6846 9.39469 -14.8459
ltibia 72.4253
lfoot 7.0848 -2.91146
ltoes 3.78507
623
root -9.11258 16.5431 -7.82159 -171.874 3.02679 -174.418
lowerback 8.27371 2.84462 4.59618
upperback 5.10084 4.58599 -0.00379416
thorax 1.01264 2.60849 -2.88811
lowerneck -11.8306 -2.64095 1.12258
upperneck 23.055 -6.09974 3.84908
head 9.30529 -2.75357 0.362509
rclavicle -1.70458e-014 5.1684e-015
rhumerus -9.33012 53.9782 -47.3443
rradius 93.7575
rwrist 14.4393
rhand 28.2877 -19.7234
rfingers 7.12502
rthumb 52.1611 -39.7329
lclavicle -1.70458e-014 5.1684e-015
lhumerus -42.2307 -19.551 95.8206
lradius 69.8792
lwrist 7.83007
lhand -32.2174 8.38176
lfingers 7.12502
lthumb -5.45864 38.2915
rfemur -30.1971 -7.28866 32.2781
rtibia 45.0729
rfoot -21.6039 -7.0869
rtoes 19.7646
lfemur -54.5873 9.34281 -14.688
ltibia 73.8239
lfoot 7.41648 -2.93839
ltoes 1.33913
624
root -9.12112 16.5354 -7.73268 -171.912 3.27655 -174.4
lowerback 8.29185 2.99742 4.66327
upperback 5.11775 4.79935 0.102077
thorax 1.03457 2.71762 -2.82901
lowerneck -11.8674 -2.70766 1.00727
upperneck 23.1317 -6.16262 3.79237
head 9.34083 -2.79604 0.353725
rclavicle 6.95746e-016 -2.5842e-015
rhumerus -7.58872 52.3927 -46.5872
rradius 92.6223
rwrist 15.6009
rhand 27.587 -19.0103
rfingers 7.12502
rthumb 51.525 -39.3939
lclavicle 6.95746e-016 -2.5842e-015
lhumerus -44.0141 -19.236 96.7046
lradius 70.5371
lwrist 8.47443
lhand -32.4983 8.58927
lfingers 7.12502
lthumb -5.72985 38.4918
rfemur -30.5445 -7.42164 32.2644
rtibia 45.1036
rfoot -21.2685 -6.45605
rtoes 19.4987
lfemur -54.5142 9.40722 -14.5321
ltibia 75.2198
lfoot 8.24313 -3.09025
ltoes 2.85104
625
root -9.13588 16.5397 -7.6551 -172.067 3.52802 -174.406
lowerback 8.33737 3.02545 4.62908
upperback 4.98375 4.82524 0.338494
thorax 0.848156 2.71309 -2.57859
lowerneck -11.3813 -2.66198 0.620193
upperneck 23.2343 -6.01074 3.63099
head 9.28573 -2.79562 0.388321
rclavicle -2.32827e-014 -1.01877e-014
rhumerus -5.9495 51.4405 -45.8768
rradius 91.5156
rwrist 16.4299
rhand 26.5938 -18.3594
rfingers 7.12502
rthumb 50.6202 -39.2503
lclavicle -2.32827e-014 -1.01877e-014
lhumerus -46.3528 -18.3698 97.7594
lradius 71.4078
lwrist 9.01164
lhand -32.8702 9.0039
lfingers 7.12502
lthumb -6.08891 38.8964
rfemur -30.695 -7.78352 32.2148
rtibia 45.0625
rfoot -20.9826 -5.69725
rtoes 19.6986
lfemur -54.1674 9.44191 -14.4265
ltibia 76.5354
lfoot 9.3309 -3.5704
ltoes 5.61532
